Patient4_TMGait_0pt4_03_right_32_GRF.mot
version=1
nRows=45
nColumns=19
inDegrees=no
endheader
time	F1x	F1y	F1z	M1x	M1y	M1z	F2x	F2y	F2z	M2x	M2y	M2z	EC1x	EC1y	EC1z	EC2x	EC2y	EC2z
41.54	16.0008	736.5331	69.575	-234.0775	-69.1002	809.9364	4.5927	30.3858	-5.495	7.6858	4.0864	39.7314	-0.0592	0.0182	-0.0073	-0.0462	0.0165	0.9585
41.5536	12.6816	737.0144	66.457	-234.6232	-66.4016	805.6195	2.9854	21.1466	-3.8063	5.4234	2.952	27.614	-0.0592	0.0182	-0.0073	-0.0462	0.0165	0.9585
41.5671	10.2082	738.2639	63.556	-235.4309	-63.6106	801.957	1.6185	13.4084	-2.3929	3.5301	2.0111	17.456	-0.0592	0.0182	-0.0073	-0.0462	0.0165	0.9585
41.5807	8.7281	740.6132	61.0495	-236.5836	-60.8887	799.5465	0.57621	7.5945	-1.3316	2.1128	1.3094	9.8077	-0.0592	0.0182	-0.0073	-0.0462	0.0165	0.9585
41.5943	8.1516	744.2354	59.0398	-238.1108	-58.3862	798.7156	-0.14424	3.6383	-0.61338	1.1549	0.83266	4.5837	-0.0592	0.0182	-0.0073	-0.0462	0.0165	0.9585
41.6079	8.2747	749.0739	57.5285	-239.9691	-56.1791	799.4604	-0.61587	1.2457	-0.17876	0.58099	0.54478	1.4142	-0.0592	0.0182	-0.0073	-0.0462	0.0165	0.9585
41.6214	8.8691	754.8612	56.485	-242.0489	-54.3112	801.5105	-0.88942	0.010204	0.04126	0.28549	0.40101	-0.23038	-0.0592	0.0182	-0.0073	-0.0462	0.0165	0.9585
41.635	9.7353	761.1773	55.8336	-244.1936	-52.7684	804.4116	-1.0521	-0.4718	0.11306	0.16217	0.37431	-0.85713	-0.0592	0.0182	-0.0073	-0.0462	0.0165	0.9585
41.6486	10.7444	767.5031	55.5111	-246.2182	-51.529	807.5885	-1.1628	-0.57661	0.091747	0.11161	0.43919	-0.95647	-0.0592	0.0182	-0.0073	-0.0462	0.0165	0.9585
41.6621	11.8333	773.294	55.4504	-247.935	-50.5488	810.4282	-1.2533	-0.60374	0.011011	0.051014	0.5736	-0.92997	-0.0592	0.0182	-0.0073	-0.0462	0.0165	0.9585
41.6757	13.0003	778.0307	55.6047	-249.1723	-49.7882	812.3491	-1.3578	-0.7719	-0.10414	-0.085117	0.75667	-1.0623	-0.0592	0.0182	-0.0073	-0.0462	0.0165	0.9585
41.6893	14.2656	781.2756	55.9192	-249.7955	-49.196	812.8647	-1.4697	-1.2588	-0.24036	-0.35108	0.96588	-1.5856	-0.0592	0.0182	-0.0073	-0.0462	0.0165	0.9585
41.7029	15.6679	782.726	56.3368	-249.7239	-48.7133	811.6169	-1.5763	-2.1444	-0.37949	-0.77195	1.1694	-2.5995	-0.0592	0.0182	-0.0073	-0.0462	0.0165	0.9585
41.7164	17.2444	782.2461	56.7992	-248.9371	-48.2801	808.4193	-1.6097	-3.4258	-0.50766	-1.3426	1.3221	-4.1141	-0.0592	0.0182	-0.0073	-0.0462	0.0165	0.9585
41.73	19.0109	779.8281	57.2706	-247.4553	-47.8586	803.2419	-1.4785	-4.9871	-0.59324	-2.0115	1.3503	-5.9898	-0.0592	0.0182	-0.0073	-0.0462	0.0165	0.9585
41.7436	20.9889	775.5604	57.7544	-245.3278	-47.4461	796.1609	-1.0637	-6.5446	-0.60083	-2.661	1.161	-7.874	-0.0592	0.0182	-0.0073	-0.0462	0.0165	0.9585
41.7571	23.1673	769.6694	58.2718	-242.6464	-47.0617	787.4219	-0.19095	-7.5884	-0.46887	-3.0817	0.61728	-9.1507	-0.0592	0.0182	-0.0073	-0.0462	0.0165	0.9585
41.7707	25.5375	762.5367	58.8568	-239.547	-46.7361	777.4348	1.303	-7.3176	-0.13175	-2.9465	-0.42295	-8.8484	-0.0592	0.0182	-0.0073	-0.0462	0.0165	0.9585
41.7843	28.0964	754.6162	59.542	-236.1822	-46.4967	766.6849	3.5748	-4.637	0.49233	-1.8009	-2.1118	-5.6573	-0.0592	0.0182	-0.0073	-0.0462	0.0165	0.9585
41.7979	30.8262	746.2876	60.3543	-232.6769	-46.3705	755.5995	6.7021	1.861	1.4662	0.93711	-4.5471	2.1172	-0.0592	0.0182	-0.0073	-0.0462	0.0165	0.9585
41.8114	33.6864	737.6969	61.2706	-229.0791	-46.348	744.381	10.6022	13.7793	2.8237	5.9292	-7.7202	16.4047	-0.0592	0.0182	-0.0073	-0.0462	0.0165	0.9585
41.825	36.5687	728.6033	62.2347	-225.3117	-46.4065	732.8786	14.916	32.6461	4.5251	13.8072	-11.4186	39.0437	-0.0592	0.0182	-0.0073	-0.0462	0.0165	0.9585
41.8386	39.3075	718.253	63.1081	-221.1388	-46.46	720.4419	18.8544	59.4961	6.4086	24.992	-15.1124	71.2937	-0.0592	0.0182	-0.0073	-0.0462	0.0165	0.9585
41.8521	41.6399	705.3845	63.6924	-216.1721	-46.3927	705.9253	21.1227	94.2	8.1335	39.4155	-17.857	113.0155	-0.0592	0.0182	-0.0073	-0.0462	0.0165	0.9585
41.8657	43.245	688.4343	63.7002	-209.9434	-46.023	687.877	19.9791	134.696	9.1658	56.2011	-18.3123	161.7611	-0.0592	0.0182	-0.0073	-0.0462	0.0165	0.9585
41.8793	43.8243	665.9876	62.8483	-202.0502	-45.1669	664.9488	14.5582	177.1369	8.7103	73.7062	-15.2379	212.985	-0.0592	0.0182	-0.0073	-0.0462	0.0165	0.9585
41.8929	43.194	637.383	60.9154	-192.3376	-43.6693	636.4727	6.3237	217.5434	6.4258	90.2395	-8.8838	261.8579	-0.0592	0.0182	-0.0073	-0.0462	0.0165	0.9585
41.9064	41.3855	602.9149	57.8984	-180.9524	-41.52	602.6312	-2.776	253.4507	2.4925	104.7747	-0.30347	305.185	-0.0592	0.0182	-0.0073	-0.0462	0.0165	0.9585
41.92	38.6516	563.6543	53.9556	-168.2821	-38.7887	564.3013	-11.5124	285.2059	-2.7084	117.4642	9.5402	343.1812	-0.0592	0.0182	-0.0073	-0.0462	0.0165	0.9585
41.9336	35.3918	521.0589	49.3136	-154.8236	-35.5615	522.7201	-19.3535	315.2006	-8.6105	129.3241	19.7833	378.6238	-0.0592	0.0182	-0.0073	-0.0462	0.0165	0.9585
41.9471	31.9656	476.3498	44.1857	-140.9795	-31.9182	478.9343	-26.1605	346.1659	-14.689	141.5263	29.7632	414.7357	-0.0592	0.0182	-0.0073	-0.0462	0.0165	0.9585
41.9607	28.5442	430.1908	38.7488	-126.9456	-27.9618	433.5189	-31.744	380.0262	-20.4817	154.9167	38.8827	453.6962	-0.0592	0.0182	-0.0073	-0.0462	0.0165	0.9585
41.9743	25.1351	382.9141	33.1637	-112.7859	-23.8311	386.7705	-35.8628	417.6391	-25.7567	169.8796	46.7776	496.4004	-0.0592	0.0182	-0.0073	-0.0462	0.0165	0.9585
41.9879	21.6162	334.8634	27.6203	-98.5485	-19.7345	339.0476	-38.3484	458.8948	-30.543	186.3777	53.4118	542.6338	-0.0592	0.0182	-0.0073	-0.0462	0.0165	0.9585
42.0014	17.8307	286.6266	22.3496	-84.3471	-15.9328	290.9627	-39.2266	502.9033	-35.0327	204.032	59.0131	591.3424	-0.0592	0.0182	-0.0073	-0.0462	0.0165	0.9585
42.015	13.6985	239.1036	17.5917	-70.3922	-12.6817	243.4312	-38.7226	548.1929	-39.5219	222.2079	63.996	640.8788	-0.0592	0.0182	-0.0073	-0.0462	0.0165	0.9585
42.0286	9.2463	193.5299	13.5093	-57.009	-10.1389	197.7113	-37.243	593.1106	-44.2059	240.1955	68.7378	689.4268	-0.0592	0.0182	-0.0073	-0.0462	0.0165	0.9585
42.0421	4.6829	151.3507	10.1744	-44.6057	-8.328	155.2577	-35.3129	636.2402	-49.1309	257.386	73.487	735.4992	-0.0592	0.0182	-0.0073	-0.0462	0.0165	0.9585
42.0557	0.39247	113.923	7.5501	-33.5823	-7.1138	117.4387	-33.3508	676.5205	-54.0885	273.3313	78.1788	778.0237	-0.0592	0.0182	-0.0073	-0.0462	0.0165	0.9585
42.0693	-3.1864	82.1056	5.5515	-24.1994	-6.289	85.1342	-31.6282	713.0704	-58.7633	287.6629	82.5689	816.1452	-0.0592	0.0182	-0.0073	-0.0462	0.0165	0.9585
42.0829	-5.7136	56.1386	4.0429	-16.5387	-5.6203	58.6128	-30.2836	744.9516	-62.8332	299.9937	86.3542	848.9287	-0.0592	0.0182	-0.0073	-0.0462	0.0165	0.9585
42.0964	-7.0378	35.7952	2.8886	-10.5409	-4.9283	37.7062	-29.3506	771.1342	-66.1369	309.9013	89.3626	875.3204	-0.0592	0.0182	-0.0073	-0.0462	0.0165	0.9585
42.11	-7.154	20.5602	1.9719	-6.0567	-4.0964	21.9495	-28.7767	790.6731	-68.6395	316.9974	91.5329	894.3474	-0.0592	0.0182	-0.0073	-0.0462	0.0165	0.9585
42.1236	-6.2734	9.7913	1.2328	-2.8936	-3.1316	10.7346	-28.4222	802.8902	-70.4006	321.0115	92.8805	905.2936	-0.0592	0.0182	-0.0073	-0.0462	0.0165	0.9585
42.1371	-4.8483	2.808	0.66183	-0.84662	-2.1616	3.4016	-28.1223	807.5757	-71.4893	321.8794	93.4256	907.9332	-0.0592	0.0182	-0.0073	-0.0462	0.0165	0.9585
